<svg width="28" height="28" viewBox="0 0 28 28" fill="none" xmlns="http://www.w3.org/2000/svg">
<path d="M7 12.8333V4.66667C7 4.02234 7.52233 3.5 8.16667 3.5H16.9903C17.3153 3.5 17.6255 3.63556 17.8463 3.87402L23.0227 9.46454C23.2224 9.6802 23.3333 9.96327 23.3333 10.2572V23.3333C23.3333 23.9777 22.811 24.5 22.1667 24.5H15.1667" stroke="currentColor" stroke-width="1.5" stroke-linecap="round" stroke-linejoin="round"/>
<path d="M4.66667 24.5H7.58334L16.3333 15.75L13.4167 12.8334L4.66667 21.5834V24.5Z" stroke="currentColor" stroke-width="1.5" stroke-linecap="round" stroke-linejoin="round"/>
<path d="M10.5 16.3334L12.8333 18.6667" stroke="currentColor" stroke-width="1.5" stroke-linecap="round" stroke-linejoin="round"/>
<path d="M23.3333 10.5L17.5 10.5C16.8557 10.5 16.3333 9.97766 16.3333 9.33333L16.3333 3.5" stroke="currentColor" stroke-width="1.5" stroke-linecap="round" stroke-linejoin="round"/>
</svg>
