<svg width="28" height="28" viewBox="0 0 28 28" fill="none" xmlns="http://www.w3.org/2000/svg">
<path d="M22.9349 11.318L14.7683 4.17221C14.3284 3.78733 13.6716 3.78732 13.2318 4.17221L5.0651 11.318C4.81191 11.5396 4.66669 11.8596 4.66669 12.196V22.1667C4.66669 22.811 5.18902 23.3333 5.83335 23.3333H10.5C11.1444 23.3333 11.6667 22.811 11.6667 22.1667V17.5C11.6667 16.8557 12.189 16.3333 12.8334 16.3333H15.1667C15.811 16.3333 16.3334 16.8557 16.3334 17.5V22.1667C16.3334 22.811 16.8557 23.3333 17.5 23.3333H22.1667C22.811 23.3333 23.3334 22.811 23.3334 22.1667V12.196C23.3334 11.8596 23.1881 11.5396 22.9349 11.318Z" stroke="currentColor" stroke-width="1.5" stroke-linecap="round" stroke-linejoin="round"/>
</svg>
